<svg width="544" height="335" xmlns="http://www.w3.org/2000/svg" xmlns:xlink="http://www.w3.org/1999/xlink"><rect x="0" y="0" width="544" height="335" rx="5" ry="5" style="fill:#282d35"/><circle cx="20" cy="20" r="7" style="fill:#ff5f58"/><circle cx="43" cy="20" r="7" style="fill:#ffbd2e"/><circle cx="66" cy="20" r="7" style="fill:#18c132"/><g transform="translate(20,60)"><g style="animation-duration:8.43s;animation-iteration-count:infinite;animation-name:k;animation-timing-function:steps(1,end);font-family:Monaco,Consolas,Menlo,'Bitstream Vera Sans Mono','Powerline Symbols',monospace;font-size:20px"><style>@keyframes k {2.336%{transform:translateX(-0px)}2.338%{transform:translateX(-544px)}2.344%{transform:translateX(-1088px)}2.345%{transform:translateX(-1632px)}2.348%{transform:translateX(-2176px)}2.351%{transform:translateX(-2720px)}2.351%{transform:translateX(-3264px)}6.589%{transform:translateX(-3808px)}6.611%{transform:translateX(-4352px)}9.373%{transform:translateX(-4896px)}11.175%{transform:translateX(-5440px)}11.804%{transform:translateX(-5984px)}13.585%{transform:translateX(-6528px)}15.584%{transform:translateX(-7072px)}16.817%{transform:translateX(-7616px)}18.060%{transform:translateX(-8160px)}24.978%{transform:translateX(-8704px)}28.911%{transform:translateX(-9248px)}30.715%{transform:translateX(-9792px)}32.967%{transform:translateX(-10336px)}40.926%{transform:translateX(-10880px)}40.962%{transform:translateX(-11424px)}40.971%{transform:translateX(-11968px)}41.009%{transform:translateX(-12512px)}41.009%{transform:translateX(-13056px)}65.830%{transform:translateX(-13600px)}65.831%{transform:translateX(-14144px)}94.669%{transform:translateX(-14688px)}}.f{fill:#00cdcd}.a{fill:#57ffc7}.b{fill:#ffc16a}.c{fill:#e5e5e5}.d{fill:#00cd00}.e{fill:#7f7f7f}</style><g transform="translate(0)"><text x="0" y="0" class="a">~</text><text x="24" y="0" class="b">❯</text></g><g transform="translate(544)"><text x="0" y="0" class="a">~</text><text x="24" y="0" class="b">❯</text></g><g transform="translate(1088)"><text x="0" y="0" class="a">~</text><text x="24" y="0" class="b">❯</text></g><g transform="translate(1632)"><text x="0" y="0" class="a">~</text><text x="24" y="0" class="b">❯</text></g><g transform="translate(2176)"><text x="0" y="0" class="a">~</text><text x="24" y="0" class="b">❯</text></g><g transform="translate(2720)"><text x="0" y="0" class="a">~</text><text x="24" y="0" class="b">❯</text></g><g transform="translate(3264)"><text x="0" y="0" class="a">~</text><text x="24" y="0" class="b">❯</text></g><g transform="translate(3808)"><text x="0" y="0" class="a">~</text><text x="24" y="0" class="b">❯</text><text x="48" y="0" class="d">r</text></g><g transform="translate(4352)"><text x="0" y="0" class="a">~</text><text x="24" y="0" class="b">❯</text><text x="48" y="0" class="d">r</text><text x="60" y="0" class="e">cat</text><text x="108" y="0" class="e">-l</text><text x="144" y="0" class="e">9001</text></g><g transform="translate(4896)"><text x="0" y="0" class="a">~</text><text x="24" y="0" class="b">❯</text><text x="48" y="0" class="c">rc</text><text x="72" y="0" class="e">at</text><text x="108" y="0" class="e">-l</text><text x="144" y="0" class="e">9001</text></g><g transform="translate(5440)"><text x="0" y="0" class="a">~</text><text x="24" y="0" class="b">❯</text><text x="48" y="0" class="c">rca</text><text x="84" y="0" class="e">t</text><text x="108" y="0" class="e">-l</text><text x="144" y="0" class="e">9001</text></g><g transform="translate(5984)"><text x="0" y="0" class="a">~</text><text x="24" y="0" class="b">❯</text><text x="48" y="0" class="d">rcat</text><text x="108" y="0" class="e">-l</text><text x="144" y="0" class="e">9001</text></g><g transform="translate(6528)"><text x="0" y="0" class="a">~</text><text x="24" y="0" class="b">❯</text><text x="48" y="0" class="d">rcat</text><text x="108" y="0" class="e">-l</text><text x="144" y="0" class="e">9001</text></g><g transform="translate(7072)"><text x="0" y="0" class="a">~</text><text x="24" y="0" class="b">❯</text><text x="48" y="0" class="d">rcat</text><text x="108" y="0" class="c">-</text><text x="120" y="0" class="e">l</text><text x="144" y="0" class="e">9001</text></g><g transform="translate(7616)"><text x="0" y="0" class="a">~</text><text x="24" y="0" class="b">❯</text><text x="48" y="0" class="d">rcat</text><text x="108" y="0" class="c">-l</text><text x="144" y="0" class="e">9001</text></g><g transform="translate(8160)"><text x="0" y="0" class="a">~</text><text x="24" y="0" class="b">❯</text><text x="48" y="0" class="d">rcat</text><text x="108" y="0" class="c">-l</text><text x="144" y="0" class="e">9001</text></g><g transform="translate(8704)"><text x="0" y="0" class="a">~</text><text x="24" y="0" class="b">❯</text><text x="48" y="0" class="d">rcat</text><text x="108" y="0" class="c">-l</text><text x="144" y="0" class="c">9</text><text x="156" y="0" class="e">001</text></g><g transform="translate(9248)"><text x="0" y="0" class="a">~</text><text x="24" y="0" class="b">❯</text><text x="48" y="0" class="d">rcat</text><text x="108" y="0" class="c">-l</text><text x="144" y="0" class="c">90</text><text x="168" y="0" class="e">01</text></g><g transform="translate(9792)"><text x="0" y="0" class="a">~</text><text x="24" y="0" class="b">❯</text><text x="48" y="0" class="d">rcat</text><text x="108" y="0" class="c">-l</text><text x="144" y="0" class="c">900</text><text x="180" y="0" class="e">1</text></g><g transform="translate(10336)"><text x="0" y="0" class="a">~</text><text x="24" y="0" class="b">❯</text><text x="48" y="0" class="d">rcat</text><text x="108" y="0" class="c">-l</text><text x="144" y="0" class="c">9001</text></g><g transform="translate(10880)"><text x="0" y="0" class="a">~</text><text x="24" y="0" class="b">❯</text><text x="48" y="0" class="d">rcat</text><text x="108" y="0" class="c">-l</text><text x="144" y="0" class="c">9001</text></g><g transform="translate(11424)"><text x="0" y="0" class="a">~</text><text x="24" y="0" class="b">❯</text><text x="48" y="0" class="d">rcat</text><text x="108" y="0" class="c">-l</text><text x="144" y="0" class="c">9001</text></g><g transform="translate(11968)"><text x="0" y="0" class="a">~</text><text x="24" y="0" class="b">❯</text><text x="48" y="0" class="d">rcat</text><text x="108" y="0" class="c">-l</text><text x="144" y="0" class="c">9001</text></g><g transform="translate(12512)"><text x="0" y="0" class="a">~</text><text x="24" y="0" class="b">❯</text><text x="48" y="0" class="d">rcat</text><text x="108" y="0" class="c">-l</text><text x="144" y="0" class="c">9001</text><text x="0" y="25" class="c">Listening</text><text x="120" y="25" class="c">on</text></g><g transform="translate(13056)"><text x="0" y="0" class="a">~</text><text x="24" y="0" class="b">❯</text><text x="48" y="0" class="d">rcat</text><text x="108" y="0" class="c">-l</text><text x="144" y="0" class="c">9001</text><text x="0" y="25" class="c">Listening</text><text x="120" y="25" class="c">on</text><text x="156" y="25" class="f">0.0.0.0:9001</text><text x="312" y="25" class="c">(tcp)</text></g><g transform="translate(13600)"><text x="0" y="0" class="a">~</text><text x="24" y="0" class="b">❯</text><text x="48" y="0" class="d">rcat</text><text x="108" y="0" class="c">-l</text><text x="144" y="0" class="c">9001</text><text x="0" y="25" class="c">Listening</text><text x="120" y="25" class="c">on</text><text x="156" y="25" class="f">0.0.0.0:9001</text><text x="312" y="25" class="c">(tcp)</text><text x="0" y="50" class="c">Connection</text><text x="132" y="50" class="c">received</text><text x="240" y="50" class="c">from</text><text x="300" y="50" class="d">127.0.0.1:40440</text></g><g transform="translate(14144)"><text x="0" y="0" class="a">~</text><text x="24" y="0" class="b">❯</text><text x="48" y="0" class="d">rcat</text><text x="108" y="0" class="c">-l</text><text x="144" y="0" class="c">9001</text><text x="0" y="25" class="c">Listening</text><text x="120" y="25" class="c">on</text><text x="156" y="25" class="f">0.0.0.0:9001</text><text x="312" y="25" class="c">(tcp)</text><text x="0" y="50" class="c">Connection</text><text x="132" y="50" class="c">received</text><text x="240" y="50" class="c">from</text><text x="300" y="50" class="d">127.0.0.1:40440</text><text x="0" y="75" class="c">GET</text><text x="48" y="75" class="c">/</text><text x="72" y="75" class="c">HTTP/1.1</text><text x="0" y="100" class="c">Host:</text><text x="72" y="100" class="c">localhost:9001</text><text x="0" y="125" class="c">User-Agent:</text><text x="144" y="125" class="c">curl/7.81.0</text><text x="0" y="150" class="c">Accept:</text><text x="96" y="150" class="c">*/*</text></g><g transform="translate(14688)"><text x="0" y="0" class="a">~</text><text x="24" y="0" class="b">❯</text><text x="48" y="0" class="d">rcat</text><text x="108" y="0" class="c">-l</text><text x="144" y="0" class="c">9001</text><text x="0" y="25" class="c">Listening</text><text x="120" y="25" class="c">on</text><text x="156" y="25" class="f">0.0.0.0:9001</text><text x="312" y="25" class="c">(tcp)</text><text x="0" y="50" class="c">Connection</text><text x="132" y="50" class="c">received</text><text x="240" y="50" class="c">from</text><text x="300" y="50" class="d">127.0.0.1:40440</text><text x="0" y="75" class="c">GET</text><text x="48" y="75" class="c">/</text><text x="72" y="75" class="c">HTTP/1.1</text><text x="0" y="100" class="c">Host:</text><text x="72" y="100" class="c">localhost:9001</text><text x="0" y="125" class="c">User-Agent:</text><text x="144" y="125" class="c">curl/7.81.0</text><text x="0" y="150" class="c">Accept:</text><text x="96" y="150" class="c">*/*</text><text x="0" y="200" class="c">^C</text></g></g></g></svg>