<svg width="520" height="285" xmlns="http://www.w3.org/2000/svg" xmlns:xlink="http://www.w3.org/1999/xlink"><rect x="0" y="0" width="520" height="285" rx="5" ry="5" style="fill:#282d35"/><circle cx="20" cy="20" r="7" style="fill:#ff5f58"/><circle cx="43" cy="20" r="7" style="fill:#ffbd2e"/><circle cx="66" cy="20" r="7" style="fill:#18c132"/><g transform="translate(20,60)"><g style="animation-duration:8.43s;animation-iteration-count:infinite;animation-name:k;animation-timing-function:steps(1,end);font-family:Monaco,Consolas,Menlo,'Bitstream Vera Sans Mono','Powerline Symbols',monospace;font-size:20px"><style>@keyframes k {2.336%{transform:translateX(-0px)}2.338%{transform:translateX(-520px)}2.344%{transform:translateX(-1040px)}2.345%{transform:translateX(-1560px)}2.348%{transform:translateX(-2080px)}2.351%{transform:translateX(-2600px)}2.351%{transform:translateX(-3120px)}6.589%{transform:translateX(-3640px)}6.611%{transform:translateX(-4160px)}9.373%{transform:translateX(-4680px)}11.175%{transform:translateX(-5200px)}11.804%{transform:translateX(-5720px)}13.585%{transform:translateX(-6240px)}15.584%{transform:translateX(-6760px)}16.817%{transform:translateX(-7280px)}18.060%{transform:translateX(-7800px)}24.978%{transform:translateX(-8320px)}28.911%{transform:translateX(-8840px)}30.715%{transform:translateX(-9360px)}32.967%{transform:translateX(-9880px)}40.926%{transform:translateX(-10400px)}40.962%{transform:translateX(-10920px)}40.971%{transform:translateX(-11440px)}41.009%{transform:translateX(-11960px)}41.009%{transform:translateX(-12480px)}65.830%{transform:translateX(-13000px)}65.831%{transform:translateX(-13520px)}94.669%{transform:translateX(-14040px)}}.f{fill:#00cdcd}.a{fill:#57ffc7}.b{fill:#ffc16a}.c{fill:#e5e5e5}.d{fill:#00cd00}.e{fill:#7f7f7f}</style><g transform="translate(0)"><text x="0" y="0" class="a">~</text><text x="24" y="0" class="b">❯</text></g><g transform="translate(520)"><text x="0" y="0" class="a">~</text><text x="24" y="0" class="b">❯</text></g><g transform="translate(1040)"><text x="0" y="0" class="a">~</text><text x="24" y="0" class="b">❯</text></g><g transform="translate(1560)"><text x="0" y="0" class="a">~</text><text x="24" y="0" class="b">❯</text></g><g transform="translate(2080)"><text x="0" y="0" class="a">~</text><text x="24" y="0" class="b">❯</text></g><g transform="translate(2600)"><text x="0" y="0" class="a">~</text><text x="24" y="0" class="b">❯</text></g><g transform="translate(3120)"><text x="0" y="0" class="a">~</text><text x="24" y="0" class="b">❯</text></g><g transform="translate(3640)"><text x="0" y="0" class="a">~</text><text x="24" y="0" class="b">❯</text><text x="48" y="0" class="d">r</text></g><g transform="translate(4160)"><text x="0" y="0" class="a">~</text><text x="24" y="0" class="b">❯</text><text x="48" y="0" class="d">r</text><text x="60" y="0" class="e">cat</text><text x="108" y="0" class="e">-l</text><text x="144" y="0" class="e">9001</text></g><g transform="translate(4680)"><text x="0" y="0" class="a">~</text><text x="24" y="0" class="b">❯</text><text x="48" y="0" class="c">rc</text><text x="72" y="0" class="e">at</text><text x="108" y="0" class="e">-l</text><text x="144" y="0" class="e">9001</text></g><g transform="translate(5200)"><text x="0" y="0" class="a">~</text><text x="24" y="0" class="b">❯</text><text x="48" y="0" class="c">rca</text><text x="84" y="0" class="e">t</text><text x="108" y="0" class="e">-l</text><text x="144" y="0" class="e">9001</text></g><g transform="translate(5720)"><text x="0" y="0" class="a">~</text><text x="24" y="0" class="b">❯</text><text x="48" y="0" class="d">rcat</text><text x="108" y="0" class="e">-l</text><text x="144" y="0" class="e">9001</text></g><g transform="translate(6240)"><text x="0" y="0" class="a">~</text><text x="24" y="0" class="b">❯</text><text x="48" y="0" class="d">rcat</text><text x="108" y="0" class="e">-l</text><text x="144" y="0" class="e">9001</text></g><g transform="translate(6760)"><text x="0" y="0" class="a">~</text><text x="24" y="0" class="b">❯</text><text x="48" y="0" class="d">rcat</text><text x="108" y="0" class="c">-</text><text x="120" y="0" class="e">l</text><text x="144" y="0" class="e">9001</text></g><g transform="translate(7280)"><text x="0" y="0" class="a">~</text><text x="24" y="0" class="b">❯</text><text x="48" y="0" class="d">rcat</text><text x="108" y="0" class="c">-l</text><text x="144" y="0" class="e">9001</text></g><g transform="translate(7800)"><text x="0" y="0" class="a">~</text><text x="24" y="0" class="b">❯</text><text x="48" y="0" class="d">rcat</text><text x="108" y="0" class="c">-l</text><text x="144" y="0" class="e">9001</text></g><g transform="translate(8320)"><text x="0" y="0" class="a">~</text><text x="24" y="0" class="b">❯</text><text x="48" y="0" class="d">rcat</text><text x="108" y="0" class="c">-l</text><text x="144" y="0" class="c">9</text><text x="156" y="0" class="e">001</text></g><g transform="translate(8840)"><text x="0" y="0" class="a">~</text><text x="24" y="0" class="b">❯</text><text x="48" y="0" class="d">rcat</text><text x="108" y="0" class="c">-l</text><text x="144" y="0" class="c">90</text><text x="168" y="0" class="e">01</text></g><g transform="translate(9360)"><text x="0" y="0" class="a">~</text><text x="24" y="0" class="b">❯</text><text x="48" y="0" class="d">rcat</text><text x="108" y="0" class="c">-l</text><text x="144" y="0" class="c">900</text><text x="180" y="0" class="e">1</text></g><g transform="translate(9880)"><text x="0" y="0" class="a">~</text><text x="24" y="0" class="b">❯</text><text x="48" y="0" class="d">rcat</text><text x="108" y="0" class="c">-l</text><text x="144" y="0" class="c">9001</text></g><g transform="translate(10400)"><text x="0" y="0" class="a">~</text><text x="24" y="0" class="b">❯</text><text x="48" y="0" class="d">rcat</text><text x="108" y="0" class="c">-l</text><text x="144" y="0" class="c">9001</text></g><g transform="translate(10920)"><text x="0" y="0" class="a">~</text><text x="24" y="0" class="b">❯</text><text x="48" y="0" class="d">rcat</text><text x="108" y="0" class="c">-l</text><text x="144" y="0" class="c">9001</text></g><g transform="translate(11440)"><text x="0" y="0" class="a">~</text><text x="24" y="0" class="b">❯</text><text x="48" y="0" class="d">rcat</text><text x="108" y="0" class="c">-l</text><text x="144" y="0" class="c">9001</text></g><g transform="translate(11960)"><text x="0" y="0" class="a">~</text><text x="24" y="0" class="b">❯</text><text x="48" y="0" class="d">rcat</text><text x="108" y="0" class="c">-l</text><text x="144" y="0" class="c">9001</text><text x="0" y="25" class="c">Listening</text><text x="120" y="25" class="c">on</text></g><g transform="translate(12480)"><text x="0" y="0" class="a">~</text><text x="24" y="0" class="b">❯</text><text x="48" y="0" class="d">rcat</text><text x="108" y="0" class="c">-l</text><text x="144" y="0" class="c">9001</text><text x="0" y="25" class="c">Listening</text><text x="120" y="25" class="c">on</text><text x="156" y="25" class="f">0.0.0.0:9001</text><text x="312" y="25" class="c">(tcp)</text></g><g transform="translate(13000)"><text x="0" y="0" class="a">~</text><text x="24" y="0" class="b">❯</text><text x="48" y="0" class="d">rcat</text><text x="108" y="0" class="c">-l</text><text x="144" y="0" class="c">9001</text><text x="0" y="25" class="c">Listening</text><text x="120" y="25" class="c">on</text><text x="156" y="25" class="f">0.0.0.0:9001</text><text x="312" y="25" class="c">(tcp)</text><text x="0" y="50" class="c">Connection</text><text x="132" y="50" class="c">received</text><text x="240" y="50" class="c">from</text><text x="300" y="50" class="d">127.0.0.1:40440</text></g><g transform="translate(13520)"><text x="0" y="0" class="a">~</text><text x="24" y="0" class="b">❯</text><text x="48" y="0" class="d">rcat</text><text x="108" y="0" class="c">-l</text><text x="144" y="0" class="c">9001</text><text x="0" y="25" class="c">Listening</text><text x="120" y="25" class="c">on</text><text x="156" y="25" class="f">0.0.0.0:9001</text><text x="312" y="25" class="c">(tcp)</text><text x="0" y="50" class="c">Connection</text><text x="132" y="50" class="c">received</text><text x="240" y="50" class="c">from</text><text x="300" y="50" class="d">127.0.0.1:40440</text><text x="0" y="75" class="c">GET</text><text x="48" y="75" class="c">/</text><text x="72" y="75" class="c">HTTP/1.1</text><text x="0" y="100" class="c">Host:</text><text x="72" y="100" class="c">localhost:9001</text><text x="0" y="125" class="c">User-Agent:</text><text x="144" y="125" class="c">curl/7.81.0</text><text x="0" y="150" class="c">Accept:</text><text x="96" y="150" class="c">*/*</text></g><g transform="translate(14040)"><text x="0" y="0" class="a">~</text><text x="24" y="0" class="b">❯</text><text x="48" y="0" class="d">rcat</text><text x="108" y="0" class="c">-l</text><text x="144" y="0" class="c">9001</text><text x="0" y="25" class="c">Listening</text><text x="120" y="25" class="c">on</text><text x="156" y="25" class="f">0.0.0.0:9001</text><text x="312" y="25" class="c">(tcp)</text><text x="0" y="50" class="c">Connection</text><text x="132" y="50" class="c">received</text><text x="240" y="50" class="c">from</text><text x="300" y="50" class="d">127.0.0.1:40440</text><text x="0" y="75" class="c">GET</text><text x="48" y="75" class="c">/</text><text x="72" y="75" class="c">HTTP/1.1</text><text x="0" y="100" class="c">Host:</text><text x="72" y="100" class="c">localhost:9001</text><text x="0" y="125" class="c">User-Agent:</text><text x="144" y="125" class="c">curl/7.81.0</text><text x="0" y="150" class="c">Accept:</text><text x="96" y="150" class="c">*/*</text><text x="0" y="200" class="c">^C</text></g></g></g></svg>